<svg xmlns="http://www.w3.org/2000/svg" width="42" height="35" viewBox="0 0 42 35" fill="none">
  <path d="M20.9998 0.833374C19.066 0.833374 17.2113 1.6016 15.8439 2.96905C14.4764 4.33651 13.7082 6.19117 13.7082 8.12504H17.8748C17.8748 7.29624 18.2041 6.50138 18.7901 5.91533C19.3762 5.32928 20.171 5.00004 20.9998 5.00004C21.8286 5.00004 22.6235 5.32928 23.2095 5.91533C23.7956 6.50138 24.1248 7.29624 24.1248 8.12504C24.1248 8.95384 23.7956 9.7487 23.2095 10.3347C22.6235 10.9208 21.8286 11.25 20.9998 11.25C19.854 11.25 18.9165 12.1875 18.9165 13.3334V16.9792L0.999837 30.4167C0.650033 30.6791 0.391643 31.0448 0.261267 31.4622C0.130892 31.8796 0.135142 32.3274 0.273414 32.7422C0.411686 33.157 0.676971 33.5178 1.03169 33.7735C1.38641 34.0291 1.81258 34.1667 2.24984 34.1667H39.7498C40.1871 34.1667 40.6133 34.0291 40.968 33.7735C41.3227 33.5178 41.588 33.157 41.7263 32.7422C41.8645 32.3274 41.8688 31.8796 41.7384 31.4622C41.608 31.0448 41.3496 30.6791 40.9998 30.4167L23.0832 16.9792V15.1042C24.5866 14.656 25.9053 13.7348 26.8436 12.4775C27.7819 11.2202 28.2897 9.69385 28.2915 8.12504C28.2915 6.19117 27.5233 4.33651 26.1558 2.96905C24.7884 1.6016 22.9337 0.833374 20.9998 0.833374ZM20.9998 20.625L33.4998 30H8.49984L20.9998 20.625Z" fill="black"/>
</svg>